<svg width="117" height="42" fill="none" xmlns="http://www.w3.org/2000/svg"><path d="M11.7 8.8H2.16V34h5.76v-7.92h3.78c4.968 0 8.82-3.852 8.82-8.64S16.668 8.8 11.7 8.8zm0 11.88H7.92V14.2h3.78c1.764 0 3.06 1.404 3.06 3.24 0 1.836-1.296 3.24-3.06 3.24zm15.663-1.476V16h-5.4v18h5.4v-8.136c0-3.564 3.168-4.464 5.4-4.104v-6.12c-2.268 0-4.68 1.152-5.4 3.564zm15.137 15.3c5.292 0 9.54-4.14 9.54-9.504s-4.248-9.504-9.54-9.504c-5.292 0-9.54 4.14-9.54 9.504s4.248 9.504 9.54 9.504zm0-5.256c-2.34 0-4.14-1.692-4.14-4.248s1.8-4.248 4.14-4.248 4.14 1.692 4.14 4.248-1.8 4.248-4.14 4.248zm14.407-14.832c1.764 0 3.24-1.476 3.24-3.24 0-1.764-1.476-3.24-3.24-3.24-1.764 0-3.24 1.476-3.24 3.24 0 1.764 1.476 3.24 3.24 3.24zM54.207 34c0 1.908-.9 2.628-2.88 2.52v5.184c5.688.324 8.28-2.088 8.28-7.704V16h-5.4v18zm13.298-6.84h12.78c.144-.684.216-1.404.216-2.16 0-5.436-3.888-9.504-9.144-9.504-5.688 0-9.576 4.14-9.576 9.504s3.816 9.504 9.972 9.504c3.42 0 6.084-1.26 7.848-3.708l-4.32-2.484c-.72.792-1.98 1.368-3.456 1.368-1.98 0-3.636-.648-4.32-2.52zm-.108-4.032c.504-1.836 1.872-2.844 3.924-2.844 1.62 0 3.24.756 3.816 2.844h-7.74zm42.015-1.944V16h-3.708v-5.04l-5.4 1.62V16h-2.88v5.184h2.88v6.372c0 5.04 2.052 7.164 9.108 6.444v-4.896c-2.376.144-3.708 0-3.708-1.548v-6.372h3.708z" fill="#fff"/><path d="M81.94 23.528a1.5 1.5 0 000 2.12l9.545 9.547a1.5 1.5 0 002.122-2.121l-8.486-8.486 8.486-8.485a1.5 1.5 0 10-2.122-2.121l-9.546 9.546zm3.56-.44H83v3h2.5v-3z" fill="#0007B5"/></svg>