<svg width="182" height="57" fill="none" xmlns="http://www.w3.org/2000/svg"><path d="M15.6 12.4H2.88V46h7.68V35.44h5.04c6.624 0 11.76-5.136 11.76-11.52 0-6.384-5.136-11.52-11.76-11.52zm0 15.84h-5.04V19.6h5.04c2.352 0 4.08 1.872 4.08 4.32 0 2.448-1.728 4.32-4.08 4.32zm20.884-1.968V22h-7.2v24h7.2V35.152c0-4.752 4.224-5.952 7.2-5.472v-8.16c-3.024 0-6.24 1.536-7.2 4.752zm20.182 20.4c7.056 0 12.72-5.52 12.72-12.672 0-7.152-5.664-12.672-12.72-12.672-7.056 0-12.72 5.52-12.72 12.672 0 7.152 5.664 12.672 12.72 12.672zm0-7.008c-3.12 0-5.52-2.256-5.52-5.664s2.4-5.664 5.52-5.664c3.12 0 5.52 2.256 5.52 5.664s-2.4 5.664-5.52 5.664zm19.21-19.776c2.352 0 4.32-1.968 4.32-4.32 0-2.352-1.968-4.32-4.32-4.32-2.352 0-4.32 1.968-4.32 4.32 0 2.352 1.968 4.32 4.32 4.32zM72.276 46c0 2.544-1.2 3.504-3.84 3.36v6.912c7.584.432 11.04-2.784 11.04-10.272V22h-7.2v24zm17.73-9.12h17.04c.192-.912.288-1.872.288-2.88 0-7.248-5.184-12.672-12.192-12.672-7.584 0-12.768 5.52-12.768 12.672 0 7.152 5.088 12.672 13.296 12.672 4.56 0 8.112-1.68 10.464-4.944l-5.76-3.312c-.96 1.056-2.64 1.824-4.608 1.824-2.64 0-4.848-.864-5.76-3.36zm-.144-5.376c.672-2.448 2.496-3.792 5.232-3.792 2.16 0 4.32 1.008 5.088 3.792h-10.32zm56.02-2.592V22h-4.944v-6.72l-7.2 2.16V22h-3.84v6.912h3.84v8.496c0 6.72 2.736 9.552 12.144 8.592v-6.528c-3.168.192-4.944 0-4.944-2.064v-8.496h4.944z" fill="#000"/><path d="M112.542 31.73c-.761.854-.725 2.11.079 2.806l13.115 11.343c.805.696 2.074.568 2.835-.286.761-.854.725-2.11-.08-2.806l-11.657-10.082 11.023-12.368c.761-.854.725-2.11-.08-2.806-.805-.696-2.074-.569-2.835.285l-12.4 13.914zm3.403-.926l-2.002.202.112 3.968 2.002-.201-.112-3.969z" fill="#0007B5"/></svg>