<svg width="177" height="114" fill="none" xmlns="http://www.w3.org/2000/svg"><path d="M45.702 113.016c14.253 0 25.703-5.889 33.48-16.124 7.681-10.111 11.56-24.155 11.56-40.292h-8c0 14.967-3.609 27.131-9.93 35.452-6.229 8.197-15.299 12.964-27.11 12.964v8zM90.742 56.6c0-16.137-3.879-30.18-11.56-40.292C71.404 6.073 59.954.184 45.701.184v8c11.811 0 20.881 4.767 27.11 12.964 6.321 8.32 9.93 20.485 9.93 35.452h8zM45.702.184C31.45.184 20 6.074 12.223 16.308 4.541 26.42.663 40.463.663 56.6h8c0-14.967 3.608-27.131 9.93-35.452 6.228-8.197 15.298-12.964 27.11-12.964v-8zM.662 56.6c0 16.137 3.879 30.18 11.561 40.292 7.776 10.235 19.226 16.124 33.48 16.124v-8c-11.812 0-20.882-4.767-27.11-12.964-6.322-8.32-9.93-20.485-9.93-35.452h-8zm45.04 25.952c-4.628 0-7.82-1.876-10.092-5.72-2.453-4.153-3.908-10.793-3.908-20.232h-8c0 10.001 1.497 18.337 5.02 24.3 3.705 6.272 9.512 9.652 16.98 9.652v-8zm-14-25.952c0-9.439 1.455-16.08 3.908-20.232 2.271-3.844 5.464-5.72 10.092-5.72v-8c-7.468 0-13.275 3.38-16.98 9.652-3.523 5.963-5.02 14.299-5.02 24.3h8zm14-25.952c4.628 0 7.821 1.876 10.092 5.72 2.453 4.153 3.908 10.793 3.908 20.232h8c0-10.001-1.497-18.337-5.02-24.3-3.705-6.272-9.512-9.652-16.98-9.652v8zm14 25.952c0 9.439-1.455 16.08-3.908 20.232-2.27 3.844-5.464 5.72-10.092 5.72v8c7.468 0 13.275-3.38 16.98-9.652 3.523-5.963 5.02-14.299 5.02-24.3h-8zm91.208-9.504l-3.145-2.471-3.46 4.403 5.287 1.845 1.318-3.777zm17.424-22.176l3.145 2.471.855-1.088V24.92h-4zm0-18.72h4v-4h-4v4zm-64.8 0v-4h-4v4h4zm0 21.6h-4v4h4v-4zm36.864 0l3.14 2.477 5.11-6.477h-8.25v4zM122.11 50.984l-3.141-2.477-1.803 2.286 1.621 2.418 3.323-2.227zm8.784 13.104l-3.323 2.227 1.189 1.773h2.134v-4zm-10.656 11.808l3.778-1.314-1.592-4.577-4.192 2.43 2.006 3.461zm-19.872 11.52l-2.006-3.46-3.038 1.76 1.353 3.241 3.691-1.541zm53.689-37.849l17.424-22.176-6.29-4.942-17.424 22.176 6.29 4.942zm18.279-24.647V6.2h-8v18.72h8zm-4-22.72h-64.8v8h64.8v-8zm-68.8 4v21.6h8V6.2h-8zm4 25.6h36.864v-8h-36.864v8zm33.723-6.477l-18.288 23.184 6.281 4.954 18.288-23.184-6.281-4.954zm-18.47 27.888l8.784 13.104 6.646-4.454-8.784-13.104-6.646 4.454zm12.107 14.877h4.752v-8h-4.752v8zm4.752 0c4.068 0 6.417 1.072 7.71 2.25 1.26 1.15 1.97 2.808 1.97 4.982h8c0-4.018-1.379-7.975-4.582-10.894-3.171-2.89-7.662-4.338-13.098-4.338v8zm9.68 7.232c0 2.174-.71 3.833-1.97 4.982-1.293 1.178-3.642 2.25-7.71 2.25v8c5.436 0 9.927-1.448 13.098-4.338 3.203-2.918 4.582-6.876 4.582-10.894h-8zm-9.68 7.232c-3.771 0-6.14-.857-7.745-2.052-1.625-1.21-2.901-3.088-3.885-5.918l-7.556 2.628c1.319 3.794 3.356 7.244 6.663 9.706 3.327 2.477 7.51 3.636 12.523 3.636v-8zm-17.414-10.117L98.36 83.955l4.012 6.922 19.872-11.52-4.012-6.922zM96.675 88.957c6.963 16.68 22.521 24.059 38.971 24.059v-8c-14.078 0-26.168-6.157-31.589-19.141l-7.382 3.082zm38.971 24.059c10.47 0 20.615-3.099 28.218-9.465 7.69-6.44 12.502-16.002 12.502-28.231h-8c0 9.947-3.828 17.232-9.638 22.097-5.897 4.938-14.112 7.599-23.082 7.599v8zm40.72-37.696c0-16.028-10.515-27.248-24.139-32l-2.635 7.553c11.145 3.888 18.774 12.539 18.774 24.447h8z" fill="#000" fill-opacity=".1"/></svg>