<svg width="151" height="114" fill="none" xmlns="http://www.w3.org/2000/svg"><path d="M45.476 113.016c14.252 0 25.703-5.889 33.479-16.124 7.682-10.111 11.56-24.155 11.56-40.292h-8c0 14.967-3.609 27.131-9.93 35.452-6.228 8.197-15.298 12.964-27.11 12.964v8zM90.516 56.6c0-16.137-3.88-30.18-11.561-40.292C71.179 6.073 59.728.184 45.475.184v8c11.812 0 20.882 4.767 27.11 12.964 6.321 8.32 9.93 20.485 9.93 35.452h8zM45.476.184c-14.253 0-25.703 5.89-33.48 16.124C4.315 26.42.437 40.463.437 56.6h8c0-14.967 3.609-27.131 9.93-35.452 6.229-8.197 15.298-12.964 27.11-12.964v-8zM.436 56.6c0 16.137 3.878 30.18 11.56 40.292 7.777 10.235 19.227 16.124 33.48 16.124v-8c-11.812 0-20.881-4.767-27.11-12.964-6.321-8.32-9.93-20.485-9.93-35.452h-8zm45.04 25.952c-4.628 0-7.821-1.876-10.092-5.72-2.453-4.153-3.908-10.793-3.908-20.232h-8c0 10.001 1.497 18.337 5.02 24.3 3.705 6.272 9.512 9.652 16.98 9.652v-8zm-14-25.952c0-9.439 1.455-16.08 3.908-20.232 2.27-3.844 5.464-5.72 10.092-5.72v-8c-7.468 0-13.275 3.38-16.98 9.652-3.523 5.963-5.02 14.299-5.02 24.3h8zm14-25.952c4.627 0 7.82 1.876 10.092 5.72 2.453 4.153 3.908 10.793 3.908 20.232h8c0-10.001-1.497-18.337-5.02-24.3-3.705-6.272-9.512-9.652-16.98-9.652v8zm14 25.952c0 9.439-1.455 16.08-3.908 20.232-2.271 3.844-5.465 5.72-10.092 5.72v8c7.468 0 13.275-3.38 16.98-9.652 3.523-5.963 5.02-14.299 5.02-24.3h-8zm67.122-50.4v-4h-.699l-.658.237 1.357 3.763zm-26.352 9.504l-1.357-3.763-3.512 1.267 1.022 3.591 3.847-1.095zm5.616 19.728l-3.847 1.095 1.085 3.81 3.82-1.047-1.058-3.858zm17.856-4.896h4v-5.244l-5.057 1.386 1.057 3.858zm0 76.464h-4v4h4v-4zm23.04 0v4h4v-4h-4zm0-100.8h4v-4h-4v4zm-21.517-3.763l-26.352 9.504 2.714 7.526 26.352-9.504-2.714-7.526zM96.399 16.8l5.616 19.728 7.694-2.19-5.616-19.728-7.694 2.19zm10.521 22.49l17.856-4.895-2.115-7.716-17.856 4.896 2.115 7.716zm12.798-8.753V107h8V30.536h-8zm4 80.464h23.04v-8h-23.04v8zm27.04-4V6.2h-8V107h8zm-4-104.8h-20.16v8h20.16v-8z" fill="#000" fill-opacity=".1"/></svg>